<svg
xmlns="http://www.w3.org/2000/svg">
    <symbol id="logo" viewBox="0 0 143 30">
    <g>
        <path fill="var(--color-1)" opacity="0.3" d="M16.4225 0.841429C16.4225 0.841429 11.6697 0.123336 9.09516 1.45573C2.28497 4.97888 -1.07375 24.0167 0.303466 26.5806C0.58453 27.0827 -0.151859 24.8751 0.252874 22.0111C0.719441 18.7096 2.4255 14.3057 3.39518 12.2916C5.45257 8.01394 7.08836 4.52446 10.5174 2.17383C11.9761 1.17242 13.5613 2.02235 16.4225 0.841429Z"
        />
        <path fill="var(--color-1)" opacity="0.3" d="M6.82422 20.4291C6.82422 20.4291 22.5863 19.7755 34.4838 10.7348C34.1746 5.99151 30.1132 7.89614 29.7057 8.03919C29.5483 8.0953 28.3004 10.9901 24.7055 13.4838C19.6885 16.9789 9.55617 20.9116 6.82422 20.4291Z"
        />
        <path fill="var(--color-2)" d="M6.20312 20.6536C6.20312 20.6536 23.9102 18.0477 31.3443 8.59189C29.8631 4.08699 26.7012 7.60171 26.3554 7.85417C26.2177 7.94954 26.5044 6.73215 22.814 8.79947C17.4879 11.7616 8.94631 20.4404 6.20312 20.6536Z"
        />
        <path fill="var(--color-1)" d="M11.2055 1.71104C12.8048 0.807817 21.6723 0.99856 20.95 1.34078C15.132 4.10655 5.84561 15.8148 3.72076 20.4151C2.42786 23.2202 0.629049 27.3099 5.38466 27.7896C7.75403 28.028 9.62592 28.1627 16.6553 25.3015C22.954 22.7489 34.9583 14.8667 34.3905 11.6662C34.0448 9.70263 30.5118 7.33236 26.3549 7.84007C24.32 8.08692 20.2698 9.5231 17.9707 11.2987C15.4074 13.2819 9.91823 17.9523 7.02608 20.2328C5.48303 21.4418 6.18288 19.596 6.18288 19.596C6.18288 19.596 14.1735 2.52451 23.7213 1.9635C31.31 1.5203 37.4569 6.77416 37.9657 11.8232C38.1568 13.7279 33.9352 16.7377 30.7901 19.1809C19.2945 28.1009 1.96692 33.0799 0.303014 26.5806C-0.0904763 25.0378 -0.0820443 22.9172 2.43629 16.2019C4.05522 11.885 7.43081 3.83446 11.2055 1.71104Z"
        />
        <path fill="var(--color-1)" d="M44.8833 25.8063C46.5692 26.7253 48.452 27.2256 50.3725 27.265C53.4024 27.265 54.8218 25.9326 54.8218 24.2692C54.8218 22.5216 53.6385 21.5623 50.5636 20.5637C46.446 19.265 44.5039 17.2678 44.5039 14.8667C44.5039 11.6212 47.486 8.95922 52.4102 8.95922C54.3553 8.93838 56.2789 9.36553 58.0315 10.2075L56.9916 12.8695C55.5514 12.0978 53.9408 11.6976 52.3062 11.7054C49.8441 11.7054 48.4725 12.9536 48.4725 14.4515C48.4725 16.1149 49.8441 16.8639 52.8262 17.8624C56.8033 19.1948 58.8382 20.948 58.8382 23.9382C58.8382 27.4754 55.7128 29.9718 50.2713 29.9718C47.7614 29.9718 45.4427 29.4305 43.835 28.5974L44.8833 25.8063Z"
        />
        <path fill="var(--color-1)" d="M82.5572 19.3044C82.5572 26.7546 76.6886 30 71.1516 30C64.9513 30 60.1704 26.0056 60.1704 19.6382C60.1704 12.906 65.1874 8.94531 71.531 8.94531C78.1079 8.94531 82.5572 13.1473 82.5572 19.3044ZM64.3836 19.5147C64.3836 23.9243 67.2701 27.2539 71.3399 27.2539C75.317 27.2539 78.2991 23.9663 78.2991 19.4306C78.2991 16.0196 76.3569 11.6915 71.4355 11.6915C66.514 11.6915 64.3836 15.6858 64.3836 19.5147Z"
        />
        <path fill="var(--color-1)" d="M90.4634 3.61841V9.40242H96.4276V12.1906H90.4634V23.049C90.4634 25.5455 91.2672 26.9761 93.586 26.9761C94.3977 26.9861 95.2079 26.9023 96.0004 26.7264L96.1915 29.4726C94.996 29.8391 93.7484 30.0078 92.4983 29.9718C90.559 29.9718 88.9962 29.4305 88.0013 28.4319C86.818 27.3491 86.3936 25.5595 86.3936 23.1892V12.1906H82.8438V9.40242H86.3936V4.57774L90.4634 3.61841Z"
        />
        <path fill="var(--color-2)" d="M98.5581 29.54C98.6509 28.1683 98.7464 26.129 98.7464 24.3394V0H102.87V12.648H102.965C104.432 10.4039 107.083 8.9453 110.773 8.9453C116.453 8.9453 120.476 13.1052 120.428 19.223C120.428 26.4208 115.27 30 110.158 30C106.844 30 104.196 28.878 102.49 26.2132H102.35L102.159 29.54H98.5581ZM102.87 21.4698C102.884 21.9186 102.947 22.3644 103.058 22.7994C103.865 25.324 106.276 27.0856 109.306 27.0856C113.66 27.0856 116.265 23.9663 116.265 19.3464C116.265 15.3128 113.899 11.8569 109.449 11.8569C106.608 11.8569 103.957 13.5652 103.106 16.345C102.969 16.8335 102.89 17.3362 102.87 17.8429V21.4698Z"
        />
        <path fill="var(--color-2)" d="M127.949 3.74473C127.997 4.99298 126.954 5.98877 125.299 5.98877C123.831 5.98877 122.792 4.99017 122.792 3.74473C122.792 2.49929 123.879 1.45581 125.394 1.45581C126.954 1.45581 127.949 2.45441 127.949 3.74473ZM123.311 29.5512V9.40252H127.477V29.54L123.311 29.5512Z"
        />
        <path fill="var(--color-2)" d="M137.036 3.61841V9.40242H143V12.1906H137.036V23.049C137.036 25.5455 137.84 26.9761 140.161 26.9761C140.972 26.9859 141.781 26.9022 142.573 26.7264L142.764 29.4726C141.568 29.8394 140.321 30.008 139.071 29.9718C137.131 29.9718 135.569 29.4305 134.574 28.4319C133.39 27.3491 132.963 25.5595 132.963 23.1892V12.1906H129.416V9.40242H132.966V4.57774L137.036 3.61841Z"
        />
    </g></symbol>

    <symbol id="star" viewBox="0 0 69 69" width="69" height="69"><g><path d="M3.4375 37.8125C18.601 37.8125 30.9375 50.149 30.9375 65.3125C30.9375 67.2107 32.4768 68.75 34.375 68.75C36.2732 68.75 37.8125 67.2107 37.8125 65.3125C37.8125 50.149 50.149 37.8125 65.3125 37.8125C67.2107 37.8125 68.75 36.2732 68.75 34.375C68.75 32.4768 67.2107 30.9375 65.3125 30.9375C50.149 30.9375 37.8125 18.601 37.8125 3.4375C37.8125 1.53931 36.2732 0 34.375 0C32.4768 0 30.9375 1.53931 30.9375 3.4375C30.9375 18.601 18.601 30.9375 3.4375 30.9375C1.53931 30.9375 0 32.4768 0 34.375C0 36.2732 1.53931 37.8125 3.4375 37.8125ZM34.375 18.415C37.7492 25.3567 43.3929 31.0004 50.335 34.375C43.3933 37.7492 37.7496 43.3929 34.375 50.335C31.0007 43.3933 25.3571 37.7496 18.415 34.375C25.3571 31.0007 31.0007 25.3571 34.375 18.415Z"/></g></symbol>
    <symbol id="vectorDown" viewBox="0 0 16 9"><g><path d="M1 1L7.5 7.5L14.5 1" stroke="#555555" stroke-width="2"/></g></symbol>
    <symbol id="menu" viewBox="0 0 30 26"><g>
    <rect x="-1.91846" y="11.853" width="34" height="3"/>
    <rect x="-1.91895" y="20" width="34" height="3"/>
    <rect x="-2" y="4" width="23" height="3"/>
    </g></symbol>
    <symbol id="support" viewBox="0 0 28 32"><g><path d="M3.65049 23.4088H7.15922C7.57573 23.4088 7.94175 23.0867 7.94175 22.6856V13.2346C7.94175 12.8335 7.58204 12.5296 7.15922 12.5296H4.34466V12.0008C4.34466 6.73744 8.68641 2.45867 14 2.45867C19.3136 2.45867 23.6553 6.73744 23.6553 12.0008V12.5296H20.8408C20.4243 12.5296 20.0583 12.8335 20.0583 13.2346V22.6856C20.0583 23.0867 20.418 23.4088 20.8408 23.4088H21.5728V25.8217C21.5728 26.9583 20.6073 27.9064 19.4272 27.9064H14.6184C14.3155 26.934 13.4005 26.2532 12.3087 26.2532C10.9772 26.2532 9.89175 27.2865 9.89175 28.575V28.66C9.89175 29.9425 10.9709 31 12.3087 31C13.3942 31 14.3092 30.2767 14.6184 29.3651H19.4272C21.4466 29.3651 23.0874 27.7605 23.0874 25.8217V23.4088H24.3495C25.8136 23.4088 27 22.2662 27 20.8622V15.0579C27 13.9214 26.2427 12.955 25.1699 12.6268V12.0008C25.1699 5.93517 20.1466 1 14 1C7.8534 1 2.8301 5.93517 2.8301 12.0008V12.6268C1.75728 12.955 1 13.9214 1 15.0579V20.8622C1 22.2662 2.18641 23.4088 3.65049 23.4088ZM13.2427 28.66C13.2427 29.1402 12.8262 29.5353 12.3277 29.5353C11.8291 29.5353 11.4126 29.1463 11.4126 28.66V28.575C11.4126 28.0948 11.8291 27.6998 12.3277 27.6998C12.8262 27.6998 13.2427 28.0948 13.2427 28.575V28.66ZM25.4854 15.0579V20.8622C25.4854 21.4639 24.9743 21.9502 24.3495 21.9502H21.5728V13.9882H24.3495C24.9743 13.9882 25.4854 14.4562 25.4854 15.0579ZM2.51456 15.0579C2.51456 14.4562 3.02573 13.9882 3.65049 13.9882H6.42718V21.9502H3.65049C3.02573 21.9502 2.51456 21.4639 2.51456 20.8622V15.0579Z"/></g></symbol>
    <symbol id="profile" viewBox="0 0 24 26"><g><path d="M22.8287 20.8625C22.2392 19.4662 21.3837 18.1978 20.3099 17.1281C19.2394 16.0553 17.9713 15.2 16.5756 14.6094C16.5631 14.6031 16.5506 14.6 16.5381 14.5938C18.4849 13.1875 19.7506 10.8969 19.7506 8.3125C19.7506 4.03125 16.2818 0.5625 12.0006 0.5625C7.71932 0.5625 4.25057 4.03125 4.25057 8.3125C4.25057 10.8969 5.51619 13.1875 7.46307 14.5969C7.45057 14.6031 7.43807 14.6062 7.42557 14.6125C6.02557 15.2031 4.76932 16.05 3.69119 17.1313C2.61841 18.2018 1.76308 19.4699 1.17244 20.8656C0.592198 22.232 0.27926 23.697 0.250566 25.1812C0.249732 25.2146 0.255582 25.2478 0.267772 25.2788C0.279962 25.3099 0.298244 25.3382 0.321543 25.3621C0.344841 25.386 0.372683 25.4049 0.403429 25.4179C0.434176 25.4308 0.467203 25.4375 0.500566 25.4375H2.37557C2.51307 25.4375 2.62244 25.3281 2.62557 25.1938C2.68807 22.7812 3.65682 20.5219 5.36932 18.8094C7.14119 17.0375 9.49432 16.0625 12.0006 16.0625C14.5068 16.0625 16.8599 17.0375 18.6318 18.8094C20.3443 20.5219 21.3131 22.7812 21.3756 25.1938C21.3787 25.3313 21.4881 25.4375 21.6256 25.4375H23.5006C23.5339 25.4375 23.567 25.4308 23.5977 25.4179C23.6285 25.4049 23.6563 25.386 23.6796 25.3621C23.7029 25.3382 23.7212 25.3099 23.7334 25.2788C23.7456 25.2478 23.7514 25.2146 23.7506 25.1812C23.7193 23.6875 23.4099 22.2344 22.8287 20.8625ZM12.0006 13.6875C10.5662 13.6875 9.21619 13.1281 8.20057 12.1125C7.18494 11.0969 6.62557 9.74687 6.62557 8.3125C6.62557 6.87813 7.18494 5.52812 8.20057 4.5125C9.21619 3.49687 10.5662 2.9375 12.0006 2.9375C13.4349 2.9375 14.7849 3.49687 15.8006 4.5125C16.8162 5.52812 17.3756 6.87813 17.3756 8.3125C17.3756 9.74687 16.8162 11.0969 15.8006 12.1125C14.7849 13.1281 13.4349 13.6875 12.0006 13.6875Z" /></g></symbol>
    <symbol id="buys" viewBox="0 0 24 30"><g><path d="M11.9998 0.600098C8.91666 0.600098 6.40178 3.11497 6.40178 6.19812V8.2974H3.60277C3.0405 8.29761 2.60269 8.83085 2.55314 9.2486L0.803762 28.1419C0.749073 28.7233 1.26944 29.2925 1.85339 29.29H22.1462C22.7302 29.2935 23.2505 28.7233 23.1958 28.1419L21.4465 9.2486C21.3978 8.73264 20.9151 8.29516 20.3968 8.2974H17.5978V6.19812C17.5978 3.11497 15.083 0.600098 11.9998 0.600098ZM11.9998 2.69936C13.9563 2.69936 15.4986 4.24165 15.4986 6.19812V8.2974H8.50104V6.19812C8.50104 4.24165 10.0433 2.69936 11.9998 2.69936ZM4.56493 10.3967H19.4347L20.9873 27.1907H3.01236L4.56493 10.3967Z" /></g></symbol>


    <symbol id="vk" viewBox="0 0 30 30"><g>
    <path d="M30 15C30 23.2838 23.2838 30 15 30C6.71625 30 0 23.2838 0 15C0 6.71625 6.71625 0 15 0C23.2838 0 30 6.71625 30 15Z" />
    <path d="M22.2129 16.6301C22.8763 17.3169 23.5765 17.963 24.1715 18.719C24.4344 19.0549 24.6832 19.4016 24.8736 19.7915C25.1433 20.3457 24.899 20.9556 24.4303 20.9887L21.5166 20.9873C20.7652 21.0534 20.1657 20.7327 19.6616 20.1879C19.2582 19.7523 18.8846 19.2886 18.4967 18.8383C18.3377 18.6542 18.1713 18.481 17.9724 18.3441C17.5747 18.0704 17.2294 18.1542 17.0021 18.594C16.7706 19.0414 16.7181 19.5367 16.6954 20.0353C16.6642 20.7627 16.4568 20.954 15.7676 20.9873C14.2947 21.0609 12.8969 20.8246 11.5984 20.0369C10.4536 19.3424 9.56579 18.362 8.79308 17.2521C7.28861 15.0909 6.13649 12.716 5.10101 10.2746C4.86793 9.72457 5.03838 9.42931 5.6108 9.41886C6.56132 9.39928 7.51171 9.40067 8.46334 9.41746C8.84966 9.42346 9.10541 9.65838 9.25458 10.0453C9.76884 11.386 10.3981 12.6615 11.1879 13.8438C11.3983 14.1586 11.6128 14.4734 11.9182 14.6949C12.2561 14.9402 12.5133 14.8589 12.6723 14.4598C12.7732 14.2068 12.8173 13.9343 12.8401 13.6632C12.9154 12.7308 12.9253 11.8 12.7932 10.8709C12.7121 10.2911 12.4041 9.91568 11.8583 9.80595C11.5798 9.75 11.6213 9.64013 11.7562 9.4716C11.9903 9.18093 12.2106 9 12.6497 9H15.9426C16.461 9.10848 16.5761 9.35539 16.6471 9.90843L16.6499 13.7865C16.6442 14.0006 16.7508 14.6359 17.1145 14.7776C17.4056 14.8785 17.5975 14.6316 17.7721 14.4359C18.5605 13.5487 19.1232 12.5002 19.6259 11.4146C19.849 10.9372 20.0408 10.4414 20.2267 9.94605C20.3644 9.57847 20.5806 9.39761 20.9711 9.40562L24.1403 9.40862C24.2343 9.40862 24.3294 9.41008 24.4204 9.42659C24.9544 9.52308 25.1007 9.76665 24.9358 10.3196C24.6759 11.187 24.1703 11.9099 23.6759 12.6362C23.1473 13.4115 22.5821 14.1603 22.058 14.9403C21.5764 15.6525 21.6147 16.0115 22.2129 16.6301Z" fill="white"/></g></symbol>

    <symbol id="instagram" viewBox="0 0 30 30"><g>
    <path d="M30 15C30 23.2838 23.2838 30 15 30C6.71625 30 0 23.2838 0 15C0 6.71625 6.71625 0 15 0C23.2838 0 30 6.71625 30 15Z" />
    <path d="M14.9999 20.5263C11.9534 20.5263 9.47363 18.0473 9.47363 14.9999C9.47363 11.9526 11.9534 9.47363 14.9999 9.47363C18.0465 9.47363 20.5263 11.9526 20.5263 14.9999C20.5263 18.0473 18.0465 20.5263 14.9999 20.5263ZM14.9999 11.0526C12.8234 11.0526 11.0526 12.8234 11.0526 14.9999C11.0526 17.1765 12.8234 18.9473 14.9999 18.9473C17.1765 18.9473 18.9473 17.1765 18.9473 14.9999C18.9473 12.8234 17.1765 11.0526 14.9999 11.0526Z" fill="white"/>
    <path d="M20.921 10.2634C21.575 10.2634 22.1052 9.73325 22.1052 9.07923C22.1052 8.42521 21.575 7.89502 20.921 7.89502C20.267 7.89502 19.7368 8.42521 19.7368 9.07923C19.7368 9.73325 20.267 10.2634 20.921 10.2634Z" fill="white"/>
    <path d="M19.7368 25.2631H10.2631C7.21655 25.2631 4.73682 22.7842 4.73682 19.7368V10.2631C4.73682 7.21576 7.21655 4.73682 10.2631 4.73682H19.7368C22.7834 4.73682 25.2631 7.21576 25.2631 10.2631V19.7368C25.2631 22.7842 22.7834 25.2631 19.7368 25.2631ZM10.2631 6.31576C8.08655 6.31576 6.31576 8.08655 6.31576 10.2631V19.7368C6.31576 21.9134 8.08655 23.6842 10.2631 23.6842H19.7368C21.9134 23.6842 23.6842 21.9134 23.6842 19.7368V10.2631C23.6842 8.08655 21.9134 6.31576 19.7368 6.31576H10.2631Z" fill="white"/>
    </g></symbol>

    <symbol id="facebook" viewBox="0 0 30 30"><g>
    <path d="M30 15C30 23.2838 23.2838 30 15 30C6.71625 30 0 23.2838 0 15C0 6.71625 6.71625 0 15 0C23.2838 0 30 6.71625 30 15Z" />
    <path d="M19.4733 15.833H16.6667V26.6663H12.5V15.833H10V12.4997H12.5V10.4913C12.5017 7.56801 13.7158 5.83301 17.16 5.83301H20V9.16634H18.0942C16.7533 9.16634 16.6667 9.66634 16.6667 10.6022V12.4997H20L19.4733 15.833Z" fill="white"/></g></symbol>

    <symbol id="telegram" viewBox="0 0 30 30"><g>
    <path d="M30 15C30 23.2838 23.2838 30 15 30C6.71625 30 0 23.2838 0 15C0 6.71625 6.71625 0 15 0C23.2838 0 30 6.71625 30 15Z"/>
    <path d="M7.14791 14.7879C12.3904 12.4816 19.1742 9.66989 20.1109 9.28064C22.5672 8.26214 23.3209 8.45714 22.9452 10.7131C22.6752 12.3346 21.8967 17.7024 21.2757 21.0436C20.9074 23.0251 20.0809 23.2599 18.7819 22.4026C18.1572 21.9901 15.0034 19.9044 14.3187 19.4146C13.6939 18.9684 12.8322 18.4314 13.9129 17.3739C14.2977 16.9974 16.8184 14.5899 18.7827 12.7164C19.0399 12.4704 18.7167 12.0661 18.4197 12.2634C15.7722 14.0191 12.1017 16.4559 11.6344 16.7731C10.9287 17.2524 10.2507 17.4721 9.03416 17.1226C8.11466 16.8586 7.21691 16.5436 6.86741 16.4236C5.52116 15.9616 5.84066 15.3631 7.14791 14.7879Z" fill="white"/>
    </g></symbol>

    <symbol id="youtube" viewBox="0 0 30 30"><g>
    <path d="M30 15C30 23.2838 23.2838 30 15 30C6.71625 30 0 23.2838 0 15C0 6.71625 6.71625 0 15 0C23.2838 0 30 6.71625 30 15Z"/>
    <path d="M20.2616 21.3687H9.73837C7.67372 21.3687 6 19.6949 6 17.6303V12.3698C6 10.3051 7.67372 8.6314 9.73837 8.6314H20.2616C22.3263 8.6314 24 10.3051 24 12.3698V17.6303C24 19.6949 22.3263 21.3687 20.2616 21.3687ZM17.7334 14.7441L12.8113 12.3966C12.6802 12.334 12.5287 12.4296 12.5287 12.5749V17.4167C12.5287 17.5641 12.6842 17.6596 12.8156 17.593L17.7377 15.0987C17.884 15.0245 17.8815 14.8147 17.7334 14.7441Z" fill="white"/>
    </g></symbol>

    <symbol id="inn" viewBox="0 0 30 30"><g>
    <path d="M30 15C30 23.2838 23.2838 30 15 30C6.71625 30 0 23.2838 0 15C0 6.71625 6.71625 0 15 0C23.2838 0 30 6.71625 30 15Z" />
    <path d="M22.9958 22V21.9993H22.9998V16.1313C22.9998 13.2606 22.3818 11.0493 19.0258 11.0493C17.4125 11.0493 16.3298 11.9347 15.8878 12.774H15.8412V11.3173H12.6592V21.9993H15.9725V16.71C15.9725 15.3173 16.2365 13.9707 17.9612 13.9707C19.6605 13.9707 19.6858 15.56 19.6858 16.7993V22H22.9958Z" fill="white"/>
    <path d="M7.26416 11.3179H10.5815V21.9999H7.26416V11.3179Z" fill="white"/>
    <path d="M8.92133 6C7.86067 6 7 6.86067 7 7.92133C7 8.982 7.86067 9.86067 8.92133 9.86067C9.982 9.86067 10.8427 8.982 10.8427 7.92133C10.842 6.86067 9.98133 6 8.92133 6V6Z" fill="white"/>
    </g></symbol>

    <symbol id="Email" viewBox="0 0 29 23"><g>
    <path d="M26.4512 0H2.54883C1.14516 0 0 1.14391 0 2.54883V19.541C0 20.9412 1.14006 22.0898 2.54883 22.0898H26.4512C27.8513 22.0898 29 20.9498 29 19.541V2.54883C29 1.14867 27.8599 0 26.4512 0ZM26.0992 1.69922L14.554 13.2444L2.90901 1.69922H26.0992ZM1.69922 19.1892V2.89258L9.8826 11.0058L1.69922 19.1892ZM2.90074 20.3906L11.0893 12.2021L13.9585 15.0467C14.2907 15.376 14.8266 15.3749 15.1574 15.0441L17.9551 12.2464L26.0993 20.3906H2.90074ZM27.3008 19.1891L19.1566 11.0449L27.3008 2.90068V19.1891Z" fill="white"/>
    </g></symbol>

</svg>