<svg width="60" height="60" viewBox="0 0 60 60" fill="none" xmlns="http://www.w3.org/2000/svg">
<path d="M35.0977 58.8281H24.5508V48.75H35.0977V58.8281ZM28.0664 56.4844H31.582V52.2656H28.0664V56.4844Z" fill="#8B8992"/>
<path d="M29.9985 52.2656H31.5806V56.4844H29.9985V58.8281H35.0962V48.75H29.9985V52.2656Z" fill="#57555C"/>
<path d="M56.3086 44.0625H3.69141V15.9375H56.3086V44.0625Z" fill="#9BC9FF"/>
<path d="M56.3081 15.9375H29.9995V44.0625H56.3081V15.9375Z" fill="#009AE5"/>
<path d="M38.6118 56.4844H21.0337V60H38.6118V56.4844Z" fill="#005ECE"/>
<path d="M50.1222 13.8686C49.0522 13.8686 47.9963 13.5881 47.0448 13.0387C45.6164 12.214 44.5945 10.8824 44.1677 9.28907C43.7408 7.69591 43.9598 6.03185 44.7846 4.60345C45.6093 3.17505 46.9409 2.15329 48.5342 1.72638L54.4988 0.128174L56.0969 6.09278C56.5238 7.68595 56.3048 9.35001 55.48 10.7784C54.6553 12.2068 53.3238 13.2287 51.7305 13.6555C51.1986 13.7981 50.6585 13.8686 50.1222 13.8686Z" fill="#E0E0E2"/>
<path d="M56.0965 6.09278L54.4984 0.128174H54.4983L47.0444 13.0386C47.996 13.588 49.0519 13.8686 50.1219 13.8685C50.6583 13.8685 51.1983 13.798 51.7302 13.6555C53.3233 13.2286 54.6549 12.2068 55.4797 10.7784C56.3044 9.35001 56.5234 7.68595 56.0965 6.09278Z" fill="#ACABB1"/>
<path d="M32.92 48.0499L23.7861 42.7765L38.4346 17.4047L47.5684 22.6781L32.92 48.0499Z" fill="#3ED2FF"/>
<path d="M28.3518 45.4128L32.9185 48.0494L47.5666 22.6789L42.9999 20.0422L28.3518 45.4128Z" fill="#D1EEFC"/>
<path d="M47.1624 26.5039L35.3223 19.668L45.5257 8.10303L52.0762 11.885L47.1624 26.5039Z" fill="#00AEEF"/>
<path d="M52.077 11.8852L48.8018 9.99426L41.2432 23.0861L47.1632 26.5041L52.077 11.8852Z" fill="#00759E"/>
<path d="M56.3086 52.2656H3.69141V40.5469H56.3086V52.2656Z" fill="#005ECE"/>
<path d="M56.3076 40.5469H29.999V52.2656H56.3076V40.5469Z" fill="#003F8A"/>
<path d="M38.6118 56.4844H29.8228V60H38.6118V56.4844Z" fill="#003F8A"/>
</svg>
