<svg width="60" height="60" viewBox="0 0 60 60" fill="none" xmlns="http://www.w3.org/2000/svg">
<ellipse cx="30" cy="29.9687" rx="30" ry="29.9687" fill="#3ED2FF"/>
<path d="M41.8885 0.0625H17.492C15.1249 0.0625 13.1992 1.98672 13.1992 4.35134V55.711C13.1992 58.0757 15.1249 59.9999 17.492 59.9999H41.8885C44.2556 59.9999 46.1818 58.0757 46.1818 55.711V4.35134C46.1818 1.98672 44.2556 0.0625 41.8885 0.0625V0.0625Z" fill="#3D4EC6"/>
<path d="M21.4658 3.24289C21.2335 2.89784 21.0978 2.48279 21.0978 2.03577C21.0978 1.15827 21.6209 0.40424 22.3713 0.0625H17.4925C15.1216 0.0625 13.1992 1.98286 13.1992 4.35134V55.711C13.1992 58.0795 15.1216 59.9993 17.4925 59.9993H22.6792V7.00148C22.6792 5.65271 22.2196 4.36236 21.4658 3.24289Z" fill="#2B3894"/>
<path d="M15.6846 27.1519V55.7114C15.6846 56.7091 16.494 57.5177 17.4922 57.5177H41.8887C42.8868 57.5177 43.6963 56.7091 43.6963 55.7114C43.6963 54.7314 43.6963 40.4246 43.6963 27.1519H15.6846Z" fill="#E6F7FE"/>
<path d="M15.6846 27.1519V55.7114C15.6846 56.7091 16.494 57.5177 17.4922 57.5177H21.7684V27.1519H15.6846Z" fill="#D5F1FE"/>
<path d="M25.5111 35.7668C25.5111 37.3295 24.2432 38.5961 22.6789 38.5961C21.1146 38.5961 19.8467 37.3295 19.8467 35.7668C19.8467 34.2042 21.1146 32.937 22.6789 32.937C24.2432 32.937 25.5111 34.2042 25.5111 35.7668Z" fill="#3D4EC6"/>
<path d="M25.5111 46.258C25.5111 47.8206 24.2432 49.0878 22.6789 49.0878C21.1146 49.0878 19.8467 47.8206 19.8467 46.258C19.8467 44.6954 21.1146 43.4287 22.6789 43.4287C24.2432 43.4287 25.5111 44.6954 25.5111 46.258Z" fill="#3D4EC6"/>
<path d="M22.3589 32.9565C20.9453 33.1158 19.8467 34.3125 19.8467 35.7671C19.8467 37.3297 21.1146 38.5964 22.6789 38.5964C23.6544 38.5964 24.5141 38.1036 25.0234 37.354C22.5813 37.629 21.0264 34.9171 22.3589 32.9565Z" fill="#2B3894"/>
<path d="M22.3589 43.4478C20.9453 43.6065 19.8467 44.8037 19.8467 46.2577C19.8467 47.8209 21.1146 49.0876 22.6789 49.0876C23.6544 49.0876 24.5141 48.5948 25.0234 47.8452C22.5961 48.118 21.0175 45.421 22.3589 43.4478Z" fill="#2B3894"/>
<path d="M34.2496 34.5902H30.2283C29.6435 34.5902 29.1689 34.1162 29.1689 33.5319C29.1689 32.9471 29.6435 32.4736 30.2283 32.4736H34.2496C34.8345 32.4736 35.309 32.9471 35.309 33.5319C35.309 34.1162 34.8345 34.5902 34.2496 34.5902Z" fill="#11DFEF"/>
<path d="M38.2709 39.0592H30.2283C29.6429 39.0592 29.1689 38.5852 29.1689 38.0009C29.1689 37.4161 29.6429 36.9426 30.2283 36.9426H38.2709C38.8558 36.9426 39.3303 37.4161 39.3303 38.0009C39.3303 38.5852 38.8558 39.0592 38.2709 39.0592Z" fill="#11DFEF"/>
<path d="M34.2496 45.0811H30.2283C29.6435 45.0811 29.1689 44.6076 29.1689 44.0228C29.1689 43.438 29.6435 42.9645 30.2283 42.9645H34.2496C34.8345 42.9645 35.309 43.438 35.309 44.0228C35.309 44.6076 34.8345 45.0811 34.2496 45.0811Z" fill="#11DFEF"/>
<path d="M38.2709 49.5505H30.2283C29.6429 49.5505 29.1689 49.0771 29.1689 48.4923C29.1689 47.908 29.6429 47.434 30.2283 47.434H38.2709C38.8558 47.434 39.3303 47.908 39.3303 48.4923C39.3303 49.0771 38.8558 49.5505 38.2709 49.5505Z" fill="#11DFEF"/>
<path d="M41.877 2.54639H38.2513C37.9092 2.54639 37.6322 2.82309 37.6322 3.16427C37.6322 3.9839 36.9612 4.65415 36.1413 4.65415H23.2172C22.3967 4.65415 21.7258 3.9839 21.7258 3.16427C21.7258 2.82309 21.4488 2.54639 21.1067 2.54639H17.481C16.4823 2.54639 15.6729 3.35499 15.6729 4.3521V27.4344H43.6851V4.3521C43.6851 3.35499 42.8757 2.54639 41.877 2.54639Z" fill="#00AEEF"/>
<path d="M21.771 3.52145C21.7423 3.4068 21.7258 3.28774 21.7258 3.16483C21.7258 2.82309 21.4488 2.54639 21.1067 2.54639H17.481C16.4823 2.54639 15.6729 3.35499 15.6729 4.3521V27.4344H21.771V3.52145Z" fill="#D1EEFC"/>
<path d="M41.8767 2.54639H38.251C37.9089 2.54639 37.6319 2.82309 37.6319 3.16427C37.6319 3.9839 36.9609 4.65415 36.141 4.65415H29.0127L43.6848 23.0265V4.3521C43.6848 3.35499 42.8754 2.54639 41.8767 2.54639Z" fill="#D1EEFC"/>
<path d="M25.123 10.9574H20.2376C19.6527 10.9574 19.1782 10.4839 19.1782 9.89911C19.1782 9.3143 19.6527 8.84082 20.2376 8.84082H25.123C25.7079 8.84082 26.1824 9.3143 26.1824 9.89911C26.1824 10.4834 25.7079 10.9574 25.123 10.9574Z" fill="white"/>
</svg>
