<svg width="60" height="60" viewBox="0 0 60 60" fill="none" xmlns="http://www.w3.org/2000/svg">
<path d="M54.0005 13.4999H6.00049V42.4999H54.0005V13.4999Z" fill="#B7E5FF"/>
<path d="M39.0005 53.4999H21.0005V58.4999H39.0005V53.4999Z" fill="#2762D6"/>
<path d="M26.9995 53.4997V48.4998H32.9995V53.4997" fill="#2195F2"/>
<path d="M54.0005 7.49996V0.5H6.00049V7.49996" fill="#2762D6"/>
<path d="M54.0005 42.5001H6.00049V48.5001H54.0005V42.5001Z" fill="#2762D6"/>
<path d="M31.9995 44.5H27.9995V46.5H31.9995V44.5Z" fill="#B7E5FF"/>
<path d="M36 35.5H24.198L22.198 26.5H20V24.5001H23.8019L25.8019 33.5001H36V35.5Z" fill="#2762D6"/>
<path d="M35.8193 31.5001H27.1793L25.7793 24.5001H37.2193L35.8193 31.5001ZM28.8194 29.5H34.1794L34.7794 26.5H28.2194L28.8194 29.5Z" fill="#2762D6"/>
<path d="M28.0005 37.5H26.0005V39.5H28.0005V37.5Z" fill="#2762D6"/>
<path d="M33.9996 37.5H31.9995V39.5H33.9996V37.5Z" fill="#2762D6"/>
<path d="M41 6.50012H34V17.5002C34 19.7091 35.791 21.5001 38 21.5001C40.209 21.5001 41.9999 19.7091 41.9999 17.5002V14.5002L41 6.50012Z" fill="#00AEEF"/>
<path d="M54.0005 6.50012H48.0005L50.0005 14.5002V17.5002C50.0005 19.7091 51.7915 21.5001 54.0005 21.5001C56.2095 21.5001 58.0005 19.7091 58.0005 17.5002V14.5002L54.0005 6.50012Z" fill="#00AEEF"/>
<path d="M25.9995 6.50012V17.5002C25.9995 19.7091 27.7905 21.5001 29.9995 21.5001C32.2085 21.5001 33.9994 19.7091 33.9994 17.5002V6.50012H25.9995Z" fill="white"/>
<path d="M47.9995 6.50012H40.9995L41.9995 14.5002V17.5002C41.9995 19.7091 43.7904 21.5001 45.9994 21.5001C48.2084 21.5001 49.9994 19.7091 49.9994 17.5002V14.5002L47.9995 6.50012Z" fill="white"/>
<path d="M6.00045 6.50012L2.00049 14.5002V17.5002C2.00049 19.7091 3.79147 21.5001 6.00045 21.5001C8.20943 21.5001 10.0004 19.7091 10.0004 17.5002V14.5002L12.0005 6.50012H6.00045Z" fill="#00AEEF"/>
<path d="M19 6.50012L18 14.5002V17.5002C18 19.7091 19.791 21.5001 22 21.5001C24.2089 21.5001 25.9999 19.7091 25.9999 17.5002V6.50012H19Z" fill="#00AEEF"/>
<path d="M12 6.50012L10 14.5002V17.5002C10 19.7091 11.791 21.5001 14 21.5001C16.2089 21.5001 17.9999 19.7091 17.9999 17.5002V14.5002L18.9999 6.50012H12Z" fill="white"/>
<path d="M32.0005 42.5001H54.0005V29.1791C47.9555 35.4631 40.3705 40.0561 32.0005 42.5001Z" fill="#1FB7F0"/>
</svg>
