<svg width="60" height="60" viewBox="0 0 60 60" fill="none" xmlns="http://www.w3.org/2000/svg">
<ellipse cx="30.476" cy="29.5999" rx="17.3827" ry="17.4925" fill="#56C1EA"/>
<path d="M30.3212 11.9744C32.6039 11.9716 34.8649 12.4213 36.9749 13.2978C39.0849 14.1743 41.0028 15.4604 42.6189 17.0827C44.235 18.7051 45.5177 20.6319 46.3938 22.7531C47.27 24.8743 47.7224 27.1484 47.7251 29.4455C47.7279 31.7427 47.2811 34.0179 46.4101 36.1412C45.5391 38.2646 44.261 40.1945 42.6489 41.8208C41.0367 43.4471 39.122 44.738 37.0141 45.6196C34.9062 46.5013 32.6464 46.9565 30.3637 46.9594L30.3424 29.4669L30.3212 11.9744Z" fill="#2762D6"/>
<path d="M24.9029 29.9174C25.2896 30.044 25.5963 30.2574 25.8229 30.5574C26.0496 30.8507 26.1629 31.2174 26.1629 31.6574C26.1629 32.264 25.9296 32.734 25.4629 33.0674C24.9963 33.394 24.3163 33.5574 23.4229 33.5574H19.9429V26.5574H23.2229C24.0496 26.5574 24.6863 26.7207 25.1329 27.0474C25.5796 27.3674 25.8029 27.8107 25.8029 28.3774C25.8029 28.724 25.7229 29.0307 25.5629 29.2974C25.4029 29.564 25.1829 29.7707 24.9029 29.9174ZM21.2429 27.5774V29.5074H23.0829C23.5363 29.5074 23.8829 29.4274 24.1229 29.2674C24.3696 29.1007 24.4929 28.8607 24.4929 28.5474C24.4929 28.2274 24.3696 27.9874 24.1229 27.8274C23.8829 27.6607 23.5363 27.5774 23.0829 27.5774H21.2429ZM23.3429 32.5374C24.3496 32.5374 24.8529 32.2007 24.8529 31.5274C24.8529 30.854 24.3496 30.5174 23.3429 30.5174H21.2429V32.5374H23.3429ZM32.1204 32.4574V33.5574H26.9604V32.6874L29.7404 30.0474C30.0537 29.7474 30.2637 29.4874 30.3704 29.2674C30.4837 29.0407 30.5404 28.8174 30.5404 28.5974C30.5404 28.2707 30.4304 28.0207 30.2104 27.8474C29.9904 27.674 29.667 27.5874 29.2404 27.5874C28.527 27.5874 27.9804 27.8307 27.6004 28.3174L26.6904 27.6174C26.9637 27.2507 27.3304 26.9674 27.7904 26.7674C28.257 26.5607 28.777 26.4574 29.3504 26.4574C30.1104 26.4574 30.717 26.6374 31.1704 26.9974C31.6237 27.3574 31.8504 27.8474 31.8504 28.4674C31.8504 28.8474 31.7704 29.204 31.6104 29.5374C31.4504 29.8707 31.1437 30.2507 30.6904 30.6774L28.8204 32.4574H32.1204ZM38.3307 29.9174C38.7173 30.044 39.024 30.2574 39.2507 30.5574C39.4773 30.8507 39.5907 31.2174 39.5907 31.6574C39.5907 32.264 39.3573 32.734 38.8907 33.0674C38.424 33.394 37.744 33.5574 36.8507 33.5574H33.3707V26.5574H36.6507C37.4773 26.5574 38.114 26.7207 38.5607 27.0474C39.0073 27.3674 39.2307 27.8107 39.2307 28.3774C39.2307 28.724 39.1507 29.0307 38.9907 29.2974C38.8307 29.564 38.6107 29.7707 38.3307 29.9174ZM34.6707 27.5774V29.5074H36.5107C36.964 29.5074 37.3107 29.4274 37.5507 29.2674C37.7973 29.1007 37.9207 28.8607 37.9207 28.5474C37.9207 28.2274 37.7973 27.9874 37.5507 27.8274C37.3107 27.6607 36.964 27.5774 36.5107 27.5774H34.6707ZM36.7707 32.5374C37.7773 32.5374 38.2807 32.2007 38.2807 31.5274C38.2807 30.854 37.7773 30.5174 36.7707 30.5174H34.6707V32.5374H36.7707Z" fill="white"/>
<path d="M29.8116 3.01894C34.5263 3.01894 39.2484 4.36568 43.4677 6.91385C46.1438 8.53418 48.5484 10.5705 50.5913 12.9484L43.5427 12.7145C42.7149 12.6866 42.0216 13.34 41.9944 14.1735C41.9672 15.0065 42.6159 15.7046 43.4442 15.7315L53.1966 16.0556C53.7567 16.2877 54.4008 16.158 54.8292 15.7263C55.2572 15.2947 55.3852 14.6466 55.1536 14.0829L54.8325 4.27133C54.8138 3.43782 54.127 2.77743 53.2988 2.79583C52.471 2.81469 51.8138 3.50575 51.8325 4.33879C51.8325 4.35011 51.8325 4.36049 51.8335 4.37134L52.0191 10.0319C49.9556 7.81293 47.5974 5.89166 45.0113 4.32417C40.3261 1.49532 35.07 0 29.8116 0C21.4116 0 13.6669 3.48547 8.00719 9.81393C2.99344 15.4202 0 22.9661 0 29.9998C0 30.8333 0.67125 31.5093 1.5 31.5093C2.32875 31.5093 3 30.8333 3 29.9998C3 23.6916 5.70516 16.9004 10.237 11.8338C15.3211 6.15016 22.2722 3.01894 29.8116 3.01894Z" fill="#00AEEF"/>
<path d="M58.498 28.49C57.6693 28.49 56.998 29.1655 56.998 29.9995C56.998 36.3072 54.2928 43.0988 49.761 48.166C44.6769 53.8496 37.7258 56.9799 30.1864 56.9799C25.4717 56.9799 20.7496 55.6341 16.5303 53.0859C13.8542 51.4651 11.4496 49.4287 9.40674 47.0513L16.4553 47.2853C17.2831 47.3122 17.9764 46.6588 18.0036 45.8258C18.0308 44.9928 17.3821 44.2951 16.5538 44.2673L6.80143 43.9437C6.24127 43.7116 5.59721 43.8418 5.16877 44.2729C4.7408 44.7045 4.61283 45.3522 4.8444 45.9159L5.16549 55.7275C5.18424 56.5614 5.87096 57.2223 6.69924 57.2034C7.52705 57.185 8.18424 56.494 8.16549 55.6605C8.16549 55.6496 8.16549 55.6393 8.16455 55.6279L7.97893 49.9674C10.0424 52.1868 12.4006 54.1071 14.9867 55.6756C19.6719 58.5049 24.928 59.9997 30.1864 59.9997C38.5864 59.9997 46.3311 56.5147 51.9908 50.1863C57.0046 44.5795 59.998 37.0336 59.998 29.9995C59.998 29.1655 59.3268 28.49 58.498 28.49Z" fill="#00AEEF"/>
</svg>
