<svg width="157" height="33" viewBox="0 0 157 33" fill="none" xmlns="http://www.w3.org/2000/svg">
<path opacity="0.3" d="M18.0313 0.921865C18.0313 0.921865 12.8132 0.135303 9.98662 1.59474C2.50973 5.45381 -1.17779 26.3069 0.334246 29.1152C0.642825 29.6652 -0.165653 27.2471 0.278701 24.1101C0.790944 20.4937 2.66402 15.6699 3.72862 13.4638C5.98742 8.77827 7.78336 4.95607 11.548 2.38131C13.1496 1.28442 14.8899 2.21539 18.0313 0.921865Z" fill="url(#paint0_linear)"/>
<path opacity="0.3" d="M7.49316 22.3771C7.49316 22.3771 24.7983 21.6612 37.8605 11.7585C37.521 6.56291 33.0621 8.64914 32.6146 8.80584C32.4418 8.86729 31.0717 12.0381 27.125 14.7696C21.6169 18.5979 10.4926 22.9056 7.49316 22.3771Z" fill="url(#paint1_linear)"/>
<path d="M6.81152 22.6227C6.81152 22.6227 26.252 19.7684 34.414 9.41093C32.7878 4.47649 29.3162 8.32634 28.9367 8.60287C28.7855 8.70733 29.1002 7.37386 25.0486 9.6383C19.201 12.8829 9.82326 22.3892 6.81152 22.6227Z" fill="url(#paint2_linear)"/>
<path d="M12.3036 1.87429C14.0594 0.884945 23.7951 1.09388 23.002 1.46872C16.6145 4.49821 6.41898 17.3229 4.08612 22.3618C2.66666 25.4343 0.691747 29.914 5.91291 30.4394C8.51424 30.7006 10.5694 30.848 18.287 27.7141C25.2022 24.9181 38.3817 16.2843 37.7583 12.7786C37.3788 10.6279 33.4999 8.0316 28.936 8.58772C26.7019 8.8581 22.2553 10.4312 19.7311 12.3761C16.9169 14.5484 10.8903 19.6641 7.71502 22.1621C6.02092 23.4863 6.78928 21.4646 6.78928 21.4646C6.78928 21.4646 15.5622 2.76532 26.0446 2.15082C34.3763 1.66536 41.1249 7.42017 41.6835 12.9507C41.8933 15.0369 37.2584 18.3337 33.8054 21.0099C21.1845 30.7804 2.16059 36.2341 0.333795 29.1151C-0.0982163 27.4253 -0.0889588 25.1024 2.67591 17.7469C4.45333 13.0183 8.15937 4.20018 12.3036 1.87429Z" fill="url(#paint3_linear)"/>
<path d="M49.278 28.267C51.1289 29.2736 53.196 29.8216 55.3045 29.8647C58.631 29.8647 60.1893 28.4053 60.1893 26.5833C60.1893 24.6691 58.8902 23.6183 55.5143 22.5245C50.9937 21.1019 48.8614 18.9143 48.8614 16.2842C48.8614 12.7294 52.1354 9.81354 57.5417 9.81354C59.6771 9.79071 61.7891 10.2586 63.7133 11.1808L62.5716 14.0966C60.9904 13.2514 59.2222 12.813 57.4275 12.8215C54.7244 12.8215 53.2185 14.1888 53.2185 15.8295C53.2185 17.6515 54.7244 18.4719 57.9984 19.5657C62.3648 21.0251 64.5989 22.9454 64.5989 26.2207C64.5989 30.0952 61.1675 32.8297 55.1934 32.8297C52.4378 32.8297 49.892 32.2367 48.127 31.3242L49.278 28.267Z" fill="#00AEEF"/>
<path d="M90.6399 21.1451C90.6399 29.3057 84.1967 32.8606 78.1177 32.8606C71.3105 32.8606 66.0615 28.4853 66.0615 21.5107C66.0615 14.1367 71.5697 9.79834 78.5343 9.79834C85.7551 9.79834 90.6399 14.401 90.6399 21.1451ZM70.6871 21.3755C70.6871 26.2055 73.8562 29.8526 78.3245 29.8526C82.6909 29.8526 85.9649 26.2516 85.9649 21.2834C85.9649 17.5472 83.8326 12.8063 78.4294 12.8063C73.0262 12.8063 70.6871 17.1816 70.6871 21.3755Z" fill="#00AEEF"/>
<path d="M99.3202 3.96362V10.2991H105.868V13.3532H99.3202V25.2469C99.3202 27.9814 100.203 29.5484 102.748 29.5484C103.64 29.5594 104.529 29.4676 105.399 29.2749L105.609 32.2829C104.296 32.6844 102.927 32.8692 101.554 32.8298C99.4251 32.8298 97.7094 32.2368 96.617 31.143C95.3179 29.957 94.8519 27.9968 94.8519 25.4005V13.3532H90.9546V10.2991H94.8519V5.01442L99.3202 3.96362Z" fill="#00AEEF"/>
<path d="M108.208 32.3566C108.309 30.8541 108.414 28.6204 108.414 26.6601V0H112.941V13.8539H113.046C114.657 11.3959 117.567 9.79823 121.618 9.79823C127.855 9.79823 132.271 14.3548 132.218 21.0559C132.218 28.9399 126.556 32.8605 120.943 32.8605C117.304 32.8605 114.398 31.6315 112.525 28.7126H112.37L112.16 32.3566H108.208ZM112.941 23.517C112.957 24.0085 113.026 24.4968 113.148 24.9733C114.034 27.7386 116.681 29.6681 120.008 29.6681C124.788 29.6681 127.648 26.2515 127.648 21.1911C127.648 16.7728 125.05 12.9875 120.165 12.9875C117.045 12.9875 114.135 14.8586 113.2 17.9035C113.05 18.4386 112.963 18.9892 112.941 19.5442V23.517Z" fill="#00759E"/>
<path d="M140.476 4.10189C140.528 5.46916 139.384 6.5599 137.566 6.5599C135.955 6.5599 134.813 5.46609 134.813 4.10189C134.813 2.7377 136.008 1.59473 137.671 1.59473C139.384 1.59473 140.476 2.68854 140.476 4.10189ZM135.384 32.369V10.2991H139.958V32.3567L135.384 32.369Z" fill="#00759E"/>
<path d="M150.452 3.96362V10.2991H157V13.3532H150.452V25.2469C150.452 27.9814 151.335 29.5484 153.883 29.5484C154.774 29.5592 155.662 29.4675 156.531 29.2749L156.741 32.2829C155.428 32.6847 154.059 32.8695 152.686 32.8298C150.557 32.8298 148.841 32.2368 147.749 31.143C146.45 29.957 145.981 27.9968 145.981 25.4005V13.3532H142.086V10.2991H145.984V5.01442L150.452 3.96362Z" fill="#00759E"/>
<defs>
<linearGradient id="paint0_linear" x1="5.1882" y1="30.209" x2="11.6763" y2="-0.435285" gradientUnits="userSpaceOnUse">
<stop stop-color="#D1EEFC"/>
<stop offset="0.1" stop-color="#C9EBFB"/>
<stop offset="0.25" stop-color="#B2E4FA"/>
<stop offset="0.45" stop-color="#8CD9F8"/>
<stop offset="0.67" stop-color="#58C9F4"/>
<stop offset="0.92" stop-color="#16B5F0"/>
<stop offset="1" stop-color="#00AEEF"/>
</linearGradient>
<linearGradient id="paint1_linear" x1="17.525" y1="27.4174" x2="28.7156" y2="4.83466" gradientUnits="userSpaceOnUse">
<stop stop-color="#63CDF6"/>
<stop offset="0.19" stop-color="#56C1EA"/>
<stop offset="0.55" stop-color="#33A3CC"/>
<stop offset="1" stop-color="#00759E"/>
</linearGradient>
<linearGradient id="paint2_linear" x1="1676.48" y1="1292" x2="1805.07" y2="229.71" gradientUnits="userSpaceOnUse">
<stop stop-color="#63CDF6"/>
<stop offset="0.19" stop-color="#56C1EA"/>
<stop offset="0.55" stop-color="#33A3CC"/>
<stop offset="1" stop-color="#00759E"/>
</linearGradient>
<linearGradient id="paint3_linear" x1="2378.88" y1="3556.81" x2="2935.8" y2="66.3388" gradientUnits="userSpaceOnUse">
<stop stop-color="#D1EEFC"/>
<stop offset="0.1" stop-color="#C9EBFB"/>
<stop offset="0.25" stop-color="#B2E4FA"/>
<stop offset="0.45" stop-color="#8CD9F8"/>
<stop offset="0.67" stop-color="#58C9F4"/>
<stop offset="0.92" stop-color="#16B5F0"/>
<stop offset="1" stop-color="#00AEEF"/>
</linearGradient>
</defs>
</svg>
