<svg width="49" height="37" viewBox="0 0 49 37" fill="none" xmlns="http://www.w3.org/2000/svg">
<path opacity="0.3" d="M21.0807 0.247455C21.0807 0.247455 14.9801 -0.672128 11.6755 1.03413C2.93417 5.54584 -1.37698 29.9256 0.390773 33.2088C0.751538 33.8518 -0.193668 31.0248 0.325835 27.3572C0.924706 23.1293 3.11455 17.4896 4.3592 14.9105C7 9.43252 9.09966 4.96391 13.501 1.95371C15.3734 0.671326 17.4081 1.75974 21.0807 0.247455Z" fill="url(#paint0_linear)"/>
<path opacity="0.3" d="M8.76074 25.331C8.76074 25.331 28.9925 24.494 44.2637 12.9166C43.8669 6.84235 38.6538 9.2814 38.1307 9.46459C37.9287 9.53644 36.3269 13.2435 31.7127 16.4369C25.273 20.9127 12.2674 25.9488 8.76074 25.331Z" fill="url(#paint1_linear)"/>
<path d="M7.96338 25.6182C7.96338 25.6182 30.6916 22.2811 40.2339 10.1721C38.3326 4.40312 34.274 8.90405 33.8303 9.22734C33.6535 9.34947 34.0215 7.79049 29.2846 10.4379C22.4481 14.2312 11.4845 25.3452 7.96338 25.6182Z" fill="url(#paint2_linear)"/>
<path d="M14.3846 1.36079C16.4374 0.204132 27.8195 0.448396 26.8924 0.886635C19.4245 4.42847 7.50481 19.422 4.77742 25.3131C3.1179 28.9052 0.808996 34.1425 6.91315 34.7568C9.95441 35.0621 12.3571 35.2345 21.3799 31.5705C29.4646 28.3017 44.8729 18.2078 44.1442 14.1092C43.7004 11.5948 39.1656 8.55941 33.8299 9.20958C31.2179 9.52569 26.0193 11.3649 23.0682 13.6387C19.7781 16.1783 12.7323 22.1592 9.02003 25.0796C7.03942 26.6278 7.93773 24.2642 7.93773 24.2642C7.93773 24.2642 18.1943 2.40251 30.4495 1.68409C40.1902 1.11653 48.0801 7.84458 48.7331 14.3104C48.9784 16.7494 43.5597 20.6038 39.5228 23.7325C24.7675 35.1555 2.52624 41.5315 0.390508 33.2085C-0.114564 31.2329 -0.103741 28.5172 3.12872 19.9177C5.20673 14.3894 9.53953 4.08003 14.3846 1.36079Z" fill="url(#paint3_linear)"/>
<defs>
<linearGradient id="paint0_linear" x1="6.06562" y1="34.4876" x2="13.6509" y2="-1.33921" gradientUnits="userSpaceOnUse">
<stop stop-color="#D1EEFC"/>
<stop offset="0.1" stop-color="#C9EBFB"/>
<stop offset="0.25" stop-color="#B2E4FA"/>
<stop offset="0.45" stop-color="#8CD9F8"/>
<stop offset="0.67" stop-color="#58C9F4"/>
<stop offset="0.92" stop-color="#16B5F0"/>
<stop offset="1" stop-color="#00AEEF"/>
</linearGradient>
<linearGradient id="paint1_linear" x1="20.4891" y1="31.2237" x2="33.5722" y2="4.82181" gradientUnits="userSpaceOnUse">
<stop stop-color="#63CDF6"/>
<stop offset="0.19" stop-color="#56C1EA"/>
<stop offset="0.55" stop-color="#33A3CC"/>
<stop offset="1" stop-color="#00759E"/>
</linearGradient>
<linearGradient id="paint2_linear" x1="1960.01" y1="1509.67" x2="2110.34" y2="267.728" gradientUnits="userSpaceOnUse">
<stop stop-color="#63CDF6"/>
<stop offset="0.19" stop-color="#56C1EA"/>
<stop offset="0.55" stop-color="#33A3CC"/>
<stop offset="1" stop-color="#00759E"/>
</linearGradient>
<linearGradient id="paint3_linear" x1="2781.19" y1="4157.49" x2="3432.3" y2="76.7273" gradientUnits="userSpaceOnUse">
<stop stop-color="#D1EEFC"/>
<stop offset="0.1" stop-color="#C9EBFB"/>
<stop offset="0.25" stop-color="#B2E4FA"/>
<stop offset="0.45" stop-color="#8CD9F8"/>
<stop offset="0.67" stop-color="#58C9F4"/>
<stop offset="0.92" stop-color="#16B5F0"/>
<stop offset="1" stop-color="#00AEEF"/>
</linearGradient>
</defs>
</svg>
