<svg width="1818" height="644" viewBox="0 0 1818 644" fill="none" xmlns="http://www.w3.org/2000/svg">
<path d="M822.556 247.937C833.578 249.925 840.928 260.51 838.939 271.533C838.69 272.913 839.607 274.233 840.987 274.482C842.367 274.731 843.688 273.814 843.937 272.434C845.925 261.412 856.51 254.062 867.533 256.051C868.913 256.3 870.233 255.383 870.482 254.003C870.731 252.623 869.814 251.302 868.434 251.053C857.412 249.065 850.062 238.48 852.051 227.457C852.3 226.078 851.383 224.757 850.003 224.508C848.623 224.259 847.302 225.176 847.053 226.556C845.065 237.578 834.48 244.928 823.457 242.939C822.078 242.69 820.757 243.607 820.508 244.987C820.259 246.367 821.176 247.688 822.556 247.937ZM847.588 237.894C849.13 243.382 852.493 248.225 857.096 251.588C851.608 253.13 846.765 256.493 843.402 261.096C841.86 255.608 838.497 250.766 833.894 247.402C839.382 245.86 844.225 242.497 847.588 237.894Z" fill="white" fill-opacity="0.06"/>
<path d="M715.6 56.1713C722.418 47.2849 735.194 45.6016 744.08 52.419C745.193 53.2724 746.787 53.0624 747.64 51.9499C748.494 50.8375 748.284 49.2433 747.171 48.3899C738.285 41.5725 736.602 28.7963 743.419 19.9098C744.272 18.7974 744.062 17.2033 742.95 16.3498C741.838 15.4964 740.243 15.7065 739.39 16.8189C732.573 25.7054 719.796 27.3887 710.91 20.5712C709.797 19.7178 708.203 19.9279 707.35 21.0403C706.496 22.1527 706.706 23.7469 707.819 24.6003C716.705 31.4177 718.389 44.1939 711.571 53.0804C710.718 54.1928 710.928 55.787 712.04 56.6404C713.153 57.4938 714.747 57.2838 715.6 56.1713ZM718.142 29.3196C723.727 30.4631 729.572 29.693 734.671 27.1419C733.527 32.727 734.297 38.5719 736.848 43.6706C731.263 42.5271 725.418 43.2972 720.32 45.8484C721.463 40.263 720.693 34.4182 718.142 29.3196Z" fill="white" fill-opacity="0.06"/>
<path d="M1665.7 116.049C1675.1 109.96 1687.7 112.655 1693.79 122.055C1694.55 123.232 1696.12 123.568 1697.3 122.806C1698.48 122.044 1698.81 120.471 1698.05 119.294C1691.96 109.894 1694.65 97.292 1704.06 91.2029C1705.23 90.4407 1705.57 88.8683 1704.81 87.6915C1704.04 86.5147 1702.47 86.1786 1701.29 86.9408C1691.89 93.0298 1679.29 90.3357 1673.2 80.9351C1672.44 79.7584 1670.87 79.4222 1669.69 80.1844C1668.51 80.9467 1668.18 82.5191 1668.94 83.6959C1675.03 93.0964 1672.34 105.698 1662.94 111.787C1661.76 112.55 1661.42 114.122 1662.18 115.299C1662.95 116.475 1664.52 116.812 1665.7 116.049ZM1677.09 91.6008C1681.97 94.5493 1687.73 95.7818 1693.39 95.0862C1690.44 99.9656 1689.21 105.731 1689.9 111.389C1685.02 108.441 1679.26 107.208 1673.6 107.904C1676.55 103.024 1677.78 97.2594 1677.09 91.6008Z" fill="white" fill-opacity="0.06"/>
<path d="M478.489 417.797C479.483 418.149 480.575 417.629 480.927 416.635C482.865 411.168 486.259 406.304 490.742 402.57C491.552 401.895 491.662 400.691 490.987 399.88C490.312 399.07 489.107 398.96 488.297 399.635C474.542 411.094 454.029 409.226 442.57 395.471C441.895 394.66 440.691 394.55 439.88 395.226C439.07 395.901 438.96 397.105 439.635 397.915C451.094 411.67 449.226 432.183 435.471 443.642C434.66 444.317 434.551 445.521 435.226 446.332C435.901 447.142 437.105 447.252 437.915 446.577C451.67 435.118 472.183 436.986 483.642 450.741C484.317 451.552 485.521 451.662 486.332 450.986C487.142 450.311 487.252 449.107 486.577 448.297C482.842 443.814 480.383 438.417 479.465 432.69C479.298 431.649 478.318 430.94 477.277 431.107C476.234 431.274 475.526 432.254 475.693 433.295C476.094 435.794 476.757 438.237 477.665 440.584C468.053 434.702 456.141 433.618 445.626 437.668C451.51 428.056 452.595 416.143 448.544 405.626C458.155 411.509 470.067 412.595 480.583 408.546C479.266 410.691 478.173 412.973 477.327 415.359C476.975 416.353 477.495 417.444 478.489 417.797Z" fill="white" fill-opacity="0.06"/>
<path d="M1118.44 49.8125C1133.6 49.8125 1145.94 62.149 1145.94 77.3125C1145.94 79.2107 1147.48 80.75 1149.38 80.75C1151.27 80.75 1152.81 79.2107 1152.81 77.3125C1152.81 62.149 1165.15 49.8125 1180.31 49.8125C1182.21 49.8125 1183.75 48.2732 1183.75 46.375C1183.75 44.4768 1182.21 42.9375 1180.31 42.9375C1165.15 42.9375 1152.81 30.601 1152.81 15.4375C1152.81 13.5393 1151.27 12 1149.38 12C1147.48 12 1145.94 13.5393 1145.94 15.4375C1145.94 30.601 1133.6 42.9375 1118.44 42.9375C1116.54 42.9375 1115 44.4768 1115 46.375C1115 48.2732 1116.54 49.8125 1118.44 49.8125ZM1149.38 30.415C1152.75 37.3567 1158.39 43.0004 1165.33 46.375C1158.39 49.7492 1152.75 55.3929 1149.38 62.335C1146 55.3933 1140.36 49.7496 1133.42 46.375C1140.36 43.0007 1146 37.3571 1149.38 30.415Z" fill="white" fill-opacity="0.06"/>
<path d="M1785.07 169.011C1785.97 169.567 1787.14 169.291 1787.7 168.395C1790.76 163.47 1795.11 159.444 1800.28 156.752C1801.22 156.266 1801.58 155.113 1801.09 154.177C1800.61 153.242 1799.46 152.878 1798.52 153.365C1782.65 161.624 1763.01 155.427 1754.75 139.552C1754.27 138.617 1753.11 138.253 1752.18 138.739C1751.24 139.226 1750.88 140.379 1751.37 141.314C1759.62 157.189 1753.43 176.823 1737.55 185.082C1736.62 185.569 1736.25 186.721 1736.74 187.657C1737.23 188.592 1738.38 188.956 1739.31 188.469C1755.19 180.211 1774.82 186.407 1783.08 202.282C1783.57 203.217 1784.72 203.581 1785.66 203.095C1786.59 202.608 1786.96 201.455 1786.47 200.52C1783.78 195.346 1782.53 189.552 1782.85 183.763C1782.91 182.711 1782.1 181.81 1781.05 181.751C1780 181.692 1779.1 182.498 1779.04 183.55C1778.9 186.076 1779.02 188.603 1779.41 191.089C1771.28 183.296 1759.88 179.698 1748.74 181.412C1756.54 173.279 1760.14 161.876 1758.42 150.743C1766.55 158.536 1777.95 162.135 1789.09 160.422C1787.34 162.236 1785.79 164.232 1784.46 166.382C1783.9 167.278 1784.18 168.455 1785.07 169.011Z" fill="#427DF0"/>
<path d="M493.556 612.937C504.578 614.925 511.928 625.51 509.939 636.533C509.69 637.913 510.607 639.233 511.987 639.482C513.367 639.731 514.688 638.814 514.937 637.434C516.925 626.412 527.51 619.062 538.533 621.051C539.913 621.3 541.233 620.383 541.482 619.003C541.731 617.623 540.814 616.302 539.434 616.053C528.412 614.065 521.062 603.48 523.051 592.457C523.3 591.078 522.383 589.757 521.003 589.508C519.623 589.259 518.302 590.176 518.053 591.556C516.065 602.578 505.48 609.928 494.457 607.939C493.078 607.69 491.757 608.607 491.508 609.987C491.259 611.367 492.176 612.688 493.556 612.937ZM518.588 602.894C520.13 608.382 523.493 613.225 528.096 616.588C522.608 618.13 517.765 621.493 514.402 626.096C512.86 620.608 509.497 615.766 504.894 612.402C510.382 610.86 515.225 607.497 518.588 602.894Z" fill="white" fill-opacity="0.06"/>
<path d="M66.4889 80.7968C67.4828 81.1493 68.5748 80.6289 68.9271 79.6347C70.8651 74.1679 74.2589 69.3045 78.7416 65.5702C79.5519 64.8952 79.6616 63.6907 78.9866 62.8804C78.3116 62.0701 77.1071 61.9604 76.2968 62.6354C62.5417 74.0939 42.0288 72.2256 30.5703 58.4705C29.8953 57.6602 28.6909 57.5504 27.8805 58.2255C27.07 58.9007 26.9605 60.105 27.6355 60.9153C39.094 74.6704 37.2257 95.1833 23.4706 106.642C22.6602 107.317 22.5506 108.521 23.2256 109.332C23.9006 110.142 25.105 110.252 25.9154 109.577C39.6705 98.1181 60.1834 99.9864 71.642 113.741C72.317 114.552 73.5213 114.662 74.3318 113.986C75.1422 113.311 75.2518 112.107 74.5767 111.297C70.8424 106.814 68.3832 101.417 67.4647 95.6904C67.2976 94.6489 66.318 93.94 65.2766 94.107C64.2343 94.274 63.5261 95.2538 63.6932 96.295C64.094 98.7944 64.7569 101.237 65.6645 103.584C56.0531 97.7019 44.1415 96.6178 33.6258 100.668C39.5097 91.0559 40.5948 79.1425 36.5443 68.6257C46.1552 74.509 58.0666 75.5947 68.5825 71.5457C67.2658 73.6905 66.1726 75.9728 65.3267 78.3588C64.9746 79.3529 65.4946 80.4444 66.4889 80.7968Z" fill="white" fill-opacity="0.06"/>
<path d="M92.4375 582.812C107.601 582.812 119.938 595.149 119.938 610.312C119.938 612.211 121.477 613.75 123.375 613.75C125.273 613.75 126.812 612.211 126.812 610.312C126.812 595.149 139.149 582.812 154.312 582.812C156.211 582.812 157.75 581.273 157.75 579.375C157.75 577.477 156.211 575.938 154.312 575.938C139.149 575.938 126.812 563.601 126.812 548.438C126.812 546.539 125.273 545 123.375 545C121.477 545 119.938 546.539 119.938 548.438C119.938 563.601 107.601 575.938 92.4375 575.938C90.5393 575.938 89 577.477 89 579.375C89 581.273 90.5393 582.812 92.4375 582.812ZM123.375 563.415C126.749 570.357 132.393 576 139.335 579.375C132.393 582.749 126.75 588.393 123.375 595.335C120.001 588.393 114.357 582.75 107.415 579.375C114.357 576.001 120.001 570.357 123.375 563.415Z" fill="white" fill-opacity="0.06"/>
</svg>
