<svg width="60" height="60" viewBox="0 0 60 60" fill="none" xmlns="http://www.w3.org/2000/svg">
<path d="M24.9756 0C24.6152 2.16235 23.8608 6.68847 23.6507 7.94941C22.0006 8.42365 20.4098 9.08306 18.8999 9.92C17.122 8.65 13.3866 5.98188 12.3395 5.234C11.4759 6.09765 6.1 11.4735 5.234 12.3395C6.504 14.1175 9.17212 17.8528 9.92 18.8999C9.08424 20.4076 8.42435 21.9982 7.94941 23.6507C5.78706 24.0111 1.26094 24.7655 0 24.9756V35.0244C2.16235 35.3848 6.68847 36.1392 7.94941 36.3493C8.42365 37.9993 9.08306 39.5901 9.92 41.1001C8.65 42.878 5.98188 46.6133 5.234 47.6605C6.09765 48.5241 11.4735 53.9001 12.3395 54.766C14.1174 53.496 17.8528 50.8279 18.8999 50.08C20.4076 50.9159 21.9979 51.5756 23.6507 52.0506C24.0111 54.2131 24.7654 58.7392 24.9756 60H30L31.7647 30L30 0C28.2425 0 26.7331 0 24.9756 0V0Z" fill="#56C1EA"/>
<path d="M36.3493 52.0506C37.9994 51.5765 39.5902 50.9169 41.1001 50.08C42.878 51.35 46.6134 54.0181 47.6605 54.766L54.766 47.6605C53.496 45.8826 50.8279 42.1473 50.08 41.1001C50.9158 39.5925 51.5756 38.0019 52.0506 36.3493C54.2131 35.9888 58.7392 35.2345 60 35.0244C60 33.8029 60 26.2004 60 24.9756C57.8375 24.6153 53.3114 23.8608 52.0506 23.6507C51.5764 22.0005 50.9171 20.4099 50.08 18.8999C51.35 17.122 54.0181 13.3866 54.766 12.3395C53.9024 11.4759 48.5264 6.09988 47.6605 5.234C45.8826 6.504 42.1472 9.17212 41.1001 9.92C39.5925 9.08424 38.0019 8.42435 36.3493 7.94941C35.9888 5.78706 35.2345 1.26094 35.0244 0C33.2668 0 31.7574 0 30 0V60H35.0244C35.3847 57.8375 36.1392 53.3114 36.3493 52.0506Z" fill="#00AEEF"/>
<path d="M15 30C15 38.2708 21.7287 45 30 45L31.7647 30L30 15C21.7292 15 15 21.7287 15 30Z" fill="white"/>
<path d="M45 30C45 21.7292 38.2713 15 30 15V45C38.2708 45 45 38.2713 45 30Z" fill="white"/>
<path d="M18.5298 29.9999C18.5298 33.0434 19.7291 35.9238 21.8586 38.0715L31.7651 29.9999L30.0004 18.5293C23.6757 18.5293 18.5298 23.6748 18.5298 29.9999Z" fill="#F9F9F9"/>
<path d="M38.1072 21.8927C36.0301 19.8158 33.1625 18.5293 30 18.5293V29.9999L38.1418 38.0715C42.5911 33.5839 42.5815 26.3672 38.1072 21.8927Z" fill="#F9F9F9"/>
<path d="M21.8584 38.0714C24.0082 40.2397 26.9167 41.4704 30.0002 41.4704C30.0002 40.367 31.1766 37.0586 31.1766 37.0586C31.1766 37.0586 30.0002 33.388 30.0002 32.6469C26.3892 32.6469 23.2119 34.8411 21.8584 38.0714Z" fill="#2762D6"/>
<path d="M30 32.6469V41.4704C33.0779 41.4704 35.9881 40.2435 38.1418 38.0714C36.7903 34.8461 33.6165 32.6469 30 32.6469Z" fill="#2762D6"/>
<path d="M23.8237 30.0002C23.8237 33.4057 26.5943 36.1767 30.0002 36.1767L31.7649 30.0002L30.0002 23.8237C26.5946 23.8237 23.8237 26.5943 23.8237 30.0002Z" fill="#2762D6"/>
<path d="M36.1765 30.0002C36.1765 26.5947 33.4059 23.8237 30 23.8237V36.1767C33.4055 36.1767 36.1765 33.406 36.1765 30.0002Z" fill="#2762D6"/>
</svg>
