<svg width="60" height="60" viewBox="0 0 60 60" fill="none" xmlns="http://www.w3.org/2000/svg">
<g clip-path="url(#clip0)">
<path d="M60.0004 40.6054C60.0004 33.1599 55.729 26.515 49.3318 23.2827C49.1331 37.5585 37.559 49.1326 23.2832 49.3313C26.5155 55.7285 33.1604 59.9999 40.6059 59.9999C44.0968 59.9999 47.4916 59.0702 50.4744 57.3037L59.9157 59.9153L57.3042 50.4739C59.0707 47.4911 60.0004 44.0963 60.0004 40.6054Z" fill="#003F8A"/>
<path d="M47.0205 24.1101C47.0205 11.4772 36.7433 1.19995 24.1103 1.19995C11.4774 1.19995 1.2002 11.4772 1.2002 24.1101C1.2002 28.2272 2.29608 32.2359 4.37707 35.7552L1.28442 46.9356L12.4653 43.8434C15.9846 45.9244 19.9932 47.0203 24.1103 47.0203C36.7433 47.0203 47.0205 36.743 47.0205 24.1101Z" fill="#2762D6"/>
<path d="M25.1271 47.0216C31.0161 46.9968 36.6538 44.5641 40.7999 40.2588C44.9461 35.9534 47.261 30.128 47.2354 24.0641C47.2099 18.0002 44.846 12.1946 40.6638 7.92428C36.4815 3.654 30.8235 1.26891 24.9345 1.29371L25.0308 24.1577L25.1271 47.0216Z" fill="#56C1EA"/>
<path d="M19.992 26.048C19.992 24.752 20.28 23.684 20.856 22.844C21.456 21.98 22.32 21.044 23.448 20.036C24.312 19.268 24.948 18.608 25.356 18.056C25.788 17.48 26.004 16.832 26.004 16.112C26.004 15.104 25.596 14.288 24.78 13.664C23.964 13.04 22.872 12.728 21.504 12.728C18.912 12.728 16.956 13.652 15.636 15.5L12.144 13.232C13.176 11.816 14.508 10.736 16.14 9.99202C17.772 9.22402 19.692 8.84002 21.9 8.84002C24.588 8.84002 26.724 9.42802 28.308 10.604C29.916 11.756 30.72 13.352 30.72 15.392C30.72 16.376 30.552 17.24 30.216 17.984C29.904 18.728 29.52 19.364 29.064 19.892C28.608 20.396 28.008 20.984 27.264 21.656C26.352 22.472 25.668 23.192 25.212 23.816C24.78 24.44 24.564 25.184 24.564 26.048H19.992ZM22.296 34.652C21.456 34.652 20.76 34.388 20.208 33.86C19.68 33.308 19.416 32.636 19.416 31.844C19.416 31.052 19.68 30.392 20.208 29.864C20.76 29.336 21.456 29.072 22.296 29.072C23.112 29.072 23.784 29.336 24.312 29.864C24.864 30.392 25.14 31.052 25.14 31.844C25.14 32.636 24.864 33.308 24.312 33.86C23.784 34.388 23.112 34.652 22.296 34.652Z" fill="white"/>
</g>
<defs>
<clipPath id="clip0">
<rect width="60" height="60" fill="white"/>
</clipPath>
</defs>
</svg>
